<?xml version="1.0" encoding="UTF-8"?>
<svg xmlns="http://www.w3.org/2000/svg" xmlns:xlink="http://www.w3.org/1999/xlink" id="Vector_Smart_Object" data-name="Vector Smart Object" width="74.07" height="78.135" viewBox="0 0 74.07 78.135">
  <defs>
    <clipPath id="clip-path">
      <rect id="Rectangle_2" data-name="Rectangle 2" width="74.07" height="78.135" fill="none"></rect>
    </clipPath>
  </defs>
  <path id="Path_7" data-name="Path 7" d="M37.047,0,9.11,60.707H19.5L37.04,22.677l17.533,38.03H64.96Z" fill="#005328"></path>
  <g id="Group_3" data-name="Group 3">
    <g id="Group_2" data-name="Group 2" clip-path="url(#clip-path)">
      <path id="Path_8" data-name="Path 8" d="M72.832,71.354H69.023V64.288h3.809V65.53H70.389v1.612h2.443v1.223H70.389v1.747h2.443Zm-9.135,0H61.3V64.288h2.36a4.939,4.939,0,0,1,1.537.194,2.756,2.756,0,0,1,1.047.65A3.147,3.147,0,0,1,67,66.307a4.425,4.425,0,0,1,.256,1.549,3.969,3.969,0,0,1-.359,1.719,3.188,3.188,0,0,1-1.042,1.251,2.469,2.469,0,0,1-.867.407,5.443,5.443,0,0,1-1.29.121m-.086-1.213a2.252,2.252,0,0,0,1.69-.563,2.458,2.458,0,0,0,.542-1.762A2.356,2.356,0,0,0,65.25,66.1a2.2,2.2,0,0,0-1.659-.612h-.9v4.649Zm-7.5,1.213H54.727V64.288H56.4a8.934,8.934,0,0,1,1.189.057,2.414,2.414,0,0,1,.667.182,2.089,2.089,0,0,1,.916.786,2.373,2.373,0,0,1-.137,2.573,1.99,1.99,0,0,1-1.225.726l1.765,2.743H57.93l-1.822-3.281Zm0-3.63h.306a2.224,2.224,0,0,0,1.272-.3,1.013,1.013,0,0,0,.433-.886.962.962,0,0,0-.364-.83,1.933,1.933,0,0,0-1.135-.267h-.513Zm-7.259,2.149L48.3,71.354h-1.43l2.739-7.066H50.8l2.7,7.066H52.021l-.556-1.481Zm2.16-1.31-.833-2.276-.852,2.276ZM46.032,67.6c0,.027,0,.066,0,.119s0,.093,0,.119a4.157,4.157,0,0,1-.082.846,3.169,3.169,0,0,1-.252.735,3.755,3.755,0,0,1-1.36,1.535,3.747,3.747,0,0,1-3.424.235,3.622,3.622,0,0,1-1.22-.908,3.508,3.508,0,0,1-.688-1.144,3.862,3.862,0,0,1-.238-1.358,3.514,3.514,0,0,1,.286-1.4,3.8,3.8,0,0,1,.839-1.205,3.429,3.429,0,0,1,1.164-.772,3.892,3.892,0,0,1,1.422-.252,3.43,3.43,0,0,1,1.968.559,3.557,3.557,0,0,1,1.279,1.63H44.059a1.97,1.97,0,0,0-.72-.574,2.181,2.181,0,0,0-.928-.192,2.044,2.044,0,0,0-1.535.656,2.333,2.333,0,0,0,.006,3.2,2.106,2.106,0,0,0,1.568.653,2.063,2.063,0,0,0,1.171-.35,2.1,2.1,0,0,0,.777-.942H41.628V67.6Zm-9.255,1.66h-2.5V68.112h2.5Zm-3.385-4.969V65.53H32.065v5.824H30.689V65.53H29.361V64.288Zm-9.838,7.066H22.2V64.288h1.309L26.425,68.8V64.288h1.351v7.066H26.5L23.555,66.7ZM16.32,69.873l-.547,1.481h-1.43l2.739-7.066h1.191l2.7,7.066H19.493l-.556-1.481Zm2.16-1.31-.834-2.276L16.8,68.563Zm-6.842,2.791h-.984L8.126,64.288H9.6L11.144,69l1.547-4.712h1.467ZM3.216,69.873l-.547,1.481H1.238l2.739-7.066H5.168l2.7,7.066H6.389l-.556-1.481Zm2.16-1.31-.833-2.276-.851,2.276Z" fill="#005328"></path>
      <path id="Path_9" data-name="Path 9" d="M44.278,15.726a64.434,64.434,0,0,1,6.439-1.6,40.009,40.009,0,0,1,13.741-.555c-5.592-2-13.149-2.226-21.458-.622ZM73,24.082c-3.843-3.718-18.683-.952-30.8,5.392-.334.179-.658.358-.985.538a41.205,41.205,0,0,0-9.45,7.375c-2.93,2.81-4.6,5.513-4.637,7.668,1.158-3.531,5.5-8.494,13.278-12.826,10.813-6.022,24.243-9.28,27.443-6.262,2.671,2.522,1.753,11.118-9.407,18.992-.241.172-.45.328-.63.476h0c-1.795,1.216-3.694,2.391-5.7,3.509-.258.14-.5.286-.764.429-1.1.594-2.211,1.179-3.361,1.734C45.548,52.289,43.1,53.322,40.7,54.2a56.9,56.9,0,0,1-19.807,3.836c-6.822-.1-11.528-2.583-13.478-6.626C3.842,44,11.8,32.683,26.019,23.964l3.152-6.85c-.622.254-1.245.508-1.867.78-.7.309-1.393.629-2.079.955-.209.1-.42.2-.627.307-.48.23-.95.462-1.416.7-.229.116-.451.232-.672.348-.454.241-.906.48-1.353.726-.2.11-.4.221-.6.334-.485.27-.959.545-1.431.823-.15.087-.3.174-.444.263-.577.346-1.15.7-1.711,1.058-.029.019-.061.038-.094.058C2.568,32.638-2.624,44.981,1.231,53.762c2.428,5.544,9.089,8.575,17.8,8.968,8.152.366,15.353-1.58,25.327-5.967C60.146,49.815,71.4,38.78,73.7,29.167c.519-1.66.663-3.772-.693-5.085" fill="#8f9091"></path>
      <path id="Path_10" data-name="Path 10" d="M25.442,77.184l.631-3.235H26.9l.75,2.506.491-2.506h.6l-.63,3.235h-.824l-.741-2.522-.5,2.522Z" fill="#8f9091"></path>
      <path id="Path_11" data-name="Path 11" d="M30.368,76.984a.93.93,0,0,1-.318.2,1.106,1.106,0,0,1-.4.067.8.8,0,0,1-.589-.208.79.79,0,0,1-.21-.586,1.894,1.894,0,0,1,.019-.235c.013-.094.033-.21.059-.347l.218-1.138h.59l-.253,1.324c-.013.062-.023.118-.029.166a1.076,1.076,0,0,0-.009.13.4.4,0,0,0,.1.292.387.387,0,0,0,.287.1.55.55,0,0,0,.43-.18A1.187,1.187,0,0,0,30.5,76l.25-1.262h.56l-.486,2.444h-.5Z" fill="#8f9091"></path>
      <path id="Path_12" data-name="Path 12" d="M31.326,77.184,31.8,74.74h.519l-.064.324a.977.977,0,0,1,.358-.3,1.1,1.1,0,0,1,.478-.1h.018L33,75.24a.923.923,0,0,0-.577.159.936.936,0,0,0-.264.552l-.242,1.233Z" fill="#8f9091"></path>
      <path id="Path_13" data-name="Path 13" d="M33.216,77.184l.373-1.933h-.328l.1-.511h.329l.149-.765h.588l-.146.765h.351l-.1.511h-.355L33.8,77.184Z" fill="#8f9091"></path>
      <path id="Path_14" data-name="Path 14" d="M36.247,76.984a.93.93,0,0,1-.318.2,1.106,1.106,0,0,1-.4.067.8.8,0,0,1-.589-.208.79.79,0,0,1-.21-.586,1.893,1.893,0,0,1,.019-.235c.013-.094.033-.21.059-.347l.218-1.138h.59l-.253,1.324c-.013.062-.023.118-.029.166a1.076,1.076,0,0,0-.009.13.4.4,0,0,0,.1.292.387.387,0,0,0,.287.1.55.55,0,0,0,.43-.18A1.187,1.187,0,0,0,36.383,76l.25-1.262h.56l-.486,2.444h-.5Z" fill="#8f9091"></path>
      <path id="Path_15" data-name="Path 15" d="M37.206,77.184l.473-2.444H38.2l-.064.324a.977.977,0,0,1,.358-.3,1.1,1.1,0,0,1,.478-.1h.018l-.108.573a.923.923,0,0,0-.577.159.936.936,0,0,0-.264.552L37.8,77.184Z" fill="#8f9091"></path>
      <path id="Path_16" data-name="Path 16" d="M38.932,77.184,39.4,74.74h.564L39.5,77.184Zm.523-2.7.1-.533h.564l-.1.533Z" fill="#8f9091"></path>
      <path id="Path_17" data-name="Path 17" d="M40.987,74.74l-.051.233a.964.964,0,0,1,.3-.205.818.818,0,0,1,.332-.068.964.964,0,0,1,.663.2.758.758,0,0,1,.223.6,1.739,1.739,0,0,1-.021.226q-.021.152-.061.352l-.213,1.111h-.586l.249-1.291c.01-.05.019-.1.024-.151a1.26,1.26,0,0,0,.009-.147.406.406,0,0,0-.1-.294.376.376,0,0,0-.284-.1.548.548,0,0,0-.43.182,1.2,1.2,0,0,0-.237.573l-.251,1.229h-.564l.5-2.444Z" fill="#8f9091"></path>
      <path id="Path_18" data-name="Path 18" d="M45.058,77.215a1.125,1.125,0,0,1-.39.7,1.311,1.311,0,0,1-.814.224,1.356,1.356,0,0,1-.785-.219.821.821,0,0,1-.373-.572h.586a.509.509,0,0,0,.229.236.809.809,0,0,0,.375.078.63.63,0,0,0,.456-.148.853.853,0,0,0,.2-.494.846.846,0,0,1-.282.175.991.991,0,0,1-.346.058,1.08,1.08,0,0,1-.821-.332,1.212,1.212,0,0,1-.315-.87,1.381,1.381,0,0,1,.068-.433,1.49,1.49,0,0,1,.206-.4,1.236,1.236,0,0,1,.453-.391,1.3,1.3,0,0,1,.591-.136,1.082,1.082,0,0,1,.45.093,1.048,1.048,0,0,1,.364.276l.06-.316h.581ZM44.122,75.2a.727.727,0,0,0-.548.246.832.832,0,0,0-.231.592.687.687,0,0,0,.176.491.611.611,0,0,0,.465.187.709.709,0,0,0,.545-.246.87.87,0,0,0,.224-.606.661.661,0,0,0-.179-.478.6.6,0,0,0-.452-.187" fill="#8f9091"></path>
      <path id="Path_19" data-name="Path 19" d="M47.448,77.184h-.637l.627-3.235H48.3a1.178,1.178,0,0,1,.8.246.876.876,0,0,1,.28.7,1.054,1.054,0,0,1-.084.423.9.9,0,0,1-.247.332,1.1,1.1,0,0,1-.383.213,1.952,1.952,0,0,1-.562.065h-.411ZM47.8,75.36h.322a.7.7,0,0,0,.448-.121.429.429,0,0,0,.151-.356.351.351,0,0,0-.145-.311.813.813,0,0,0-.453-.1h-.089a.581.581,0,0,0-.062.005Z" fill="#8f9091"></path>
      <path id="Path_20" data-name="Path 20" d="M51.144,77.184l.032-.169a.846.846,0,0,1-.282.175.991.991,0,0,1-.346.058,1.08,1.08,0,0,1-.821-.332,1.212,1.212,0,0,1-.315-.87,1.381,1.381,0,0,1,.067-.433,1.5,1.5,0,0,1,.206-.4,1.236,1.236,0,0,1,.453-.391,1.3,1.3,0,0,1,.591-.136,1.08,1.08,0,0,1,.45.093,1.048,1.048,0,0,1,.364.276l.06-.316h.581L51.7,77.184Zm-.39-1.984a.727.727,0,0,0-.548.246.832.832,0,0,0-.231.592.687.687,0,0,0,.176.491.611.611,0,0,0,.465.187.708.708,0,0,0,.544-.246.87.87,0,0,0,.224-.606.661.661,0,0,0-.178-.478.6.6,0,0,0-.452-.187" fill="#8f9091"></path>
      <path id="Path_21" data-name="Path 21" d="M52.212,77.184l.473-2.444H53.2l-.064.324a.977.977,0,0,1,.358-.3,1.1,1.1,0,0,1,.478-.1h.018l-.108.573a.923.923,0,0,0-.577.159.936.936,0,0,0-.264.552L52.8,77.184Z" fill="#8f9091"></path>
      <path id="Path_22" data-name="Path 22" d="M54.1,77.184l.373-1.933h-.328l.1-.511h.329l.149-.765h.588l-.146.765h.351l-.1.511h-.355l-.377,1.933Z" fill="#8f9091"></path>
      <path id="Path_23" data-name="Path 23" d="M56.425,74.74l-.051.233a.964.964,0,0,1,.3-.205A.818.818,0,0,1,57,74.7a.964.964,0,0,1,.663.2.758.758,0,0,1,.223.6,1.739,1.739,0,0,1-.021.226q-.021.152-.061.352l-.213,1.111h-.586l.249-1.291c.01-.05.019-.1.024-.151a1.26,1.26,0,0,0,.009-.147.406.406,0,0,0-.1-.294.376.376,0,0,0-.284-.1.548.548,0,0,0-.43.182,1.2,1.2,0,0,0-.237.573l-.251,1.229h-.564l.5-2.444Z" fill="#8f9091"></path>
      <path id="Path_24" data-name="Path 24" d="M60.585,76.418a1.319,1.319,0,0,1-.486.616,1.335,1.335,0,0,1-.759.215,1.134,1.134,0,0,1-1.176-1.18,1.41,1.41,0,0,1,.124-.586A1.441,1.441,0,0,1,58.642,75a1.221,1.221,0,0,1,.4-.24,1.347,1.347,0,0,1,.475-.082,1.16,1.16,0,0,1,.852.328,1.142,1.142,0,0,1,.331.847c0,.043,0,.091-.007.143s-.012.111-.022.175h-1.93a.7.7,0,0,0,.213.406.613.613,0,0,0,.415.138.726.726,0,0,0,.329-.074.8.8,0,0,0,.265-.223ZM58.8,75.693h1.327a.636.636,0,0,0-.233-.357.686.686,0,0,0-.422-.127.678.678,0,0,0-.407.128.752.752,0,0,0-.265.356" fill="#8f9091"></path>
      <path id="Path_25" data-name="Path 25" d="M60.844,77.184l.473-2.444h.519l-.064.324a.977.977,0,0,1,.358-.3,1.1,1.1,0,0,1,.478-.1h.018l-.108.573a.923.923,0,0,0-.577.159.936.936,0,0,0-.264.552l-.242,1.233Z" fill="#8f9091"></path>
      <path id="Path_26" data-name="Path 26" d="M62.622,76.379H63.2v.013a.373.373,0,0,0,.074.248.256.256,0,0,0,.207.088.235.235,0,0,0,.172-.066.218.218,0,0,0,.068-.165.236.236,0,0,0-.054-.15.741.741,0,0,0-.182-.15c-.046-.032-.109-.071-.189-.12a1.546,1.546,0,0,1-.266-.191.714.714,0,0,1-.132-.206.613.613,0,0,1-.041-.224.717.717,0,0,1,.237-.548.838.838,0,0,1,.594-.221.766.766,0,0,1,.551.2.7.7,0,0,1,.212.529v.038l-.577,0a.35.35,0,0,0-.058-.205.187.187,0,0,0-.154-.07.221.221,0,0,0-.155.059.184.184,0,0,0-.065.141q0,.13.286.3l.075.047a1.435,1.435,0,0,1,.4.338.6.6,0,0,1,.114.362.782.782,0,0,1-.242.585.839.839,0,0,1-.608.235.89.89,0,0,1-.626-.21.741.741,0,0,1-.229-.574c0-.008,0-.021,0-.04s0-.034,0-.045" fill="#8f9091"></path>
      <path id="Path_27" data-name="Path 27" d="M64.57,77.184l.628-3.235h.567l-.19.964a.963.963,0,0,1,.274-.16.857.857,0,0,1,.3-.053.932.932,0,0,1,.65.2.76.76,0,0,1,.222.593,1.827,1.827,0,0,1-.021.226c-.014.1-.034.218-.061.352l-.213,1.111h-.586l.249-1.291c.01-.051.019-.1.024-.151a1.175,1.175,0,0,0,.009-.147.407.407,0,0,0-.1-.294.378.378,0,0,0-.284-.1.547.547,0,0,0-.43.183,1.2,1.2,0,0,0-.238.573l-.237,1.229Z" fill="#8f9091"></path>
      <path id="Path_28" data-name="Path 28" d="M67.219,77.184l.472-2.444h.564l-.472,2.444Zm.523-2.7.1-.533h.564l-.1.533Z" fill="#8f9091"></path>
      <path id="Path_29" data-name="Path 29" d="M68.118,77.975l.623-3.235h.551l-.033.156a1.023,1.023,0,0,1,.3-.153,1.2,1.2,0,0,1,.354-.052,1.059,1.059,0,0,1,.8.33,1.151,1.151,0,0,1,.316.83,1.487,1.487,0,0,1-.1.549,1.394,1.394,0,0,1-.3.462,1.225,1.225,0,0,1-.43.289,1.479,1.479,0,0,1-.546.1,1.217,1.217,0,0,1-.462-.076.852.852,0,0,1-.326-.249l-.2,1.051Zm.945-1.938a.688.688,0,0,0,.175.491.6.6,0,0,0,.457.187.715.715,0,0,0,.549-.245.86.86,0,0,0,.223-.6.653.653,0,0,0-.178-.479.633.633,0,0,0-.472-.181.7.7,0,0,0-.536.237.842.842,0,0,0-.218.591" fill="#8f9091"></path>
      <path id="Path_30" data-name="Path 30" d="M71.26,76.379h.577v.013a.373.373,0,0,0,.074.248.256.256,0,0,0,.207.088.235.235,0,0,0,.172-.066.218.218,0,0,0,.068-.165.236.236,0,0,0-.054-.15.741.741,0,0,0-.182-.15c-.046-.032-.109-.071-.189-.12a1.547,1.547,0,0,1-.266-.191.714.714,0,0,1-.132-.206.613.613,0,0,1-.041-.224.717.717,0,0,1,.237-.548.838.838,0,0,1,.594-.221.766.766,0,0,1,.552.2.7.7,0,0,1,.212.529v.038l-.577,0a.35.35,0,0,0-.058-.205.187.187,0,0,0-.154-.07.221.221,0,0,0-.155.059.184.184,0,0,0-.065.141q0,.13.286.3l.075.047a1.435,1.435,0,0,1,.4.338.6.6,0,0,1,.114.362.782.782,0,0,1-.242.585.839.839,0,0,1-.608.235.89.89,0,0,1-.626-.21.741.741,0,0,1-.229-.574c0-.008,0-.021,0-.04s0-.034,0-.045" fill="#8f9091"></path>
    </g>
  </g>
</svg>
